<mxfile host="app.diagrams.net" agent="Mozilla/5.0 (Windows NT 10.0; Win64; x64) AppleWebKit/537.36 (KHTML, like Gecko) Chrome/120.0.0.0 Safari/537.36" version="26.2.13">
  <diagram name="第 1 页" id="5ebKiJL6RLtHLWl6l3qJ">
    <mxGraphModel dx="1334" dy="791" grid="0" gridSize="10" guides="1" tooltips="1" connect="1" arrows="1" fold="1" page="1" pageScale="1" pageWidth="827" pageHeight="1169" math="0" shadow="0">
      <root>
        <mxCell id="0" />
        <mxCell id="1" parent="0" />
        <mxCell id="ouxITJuBnf-tcr71eJhk-1" value="&lt;font style=&quot;font-size: 18px;&quot;&gt;工厂&lt;/font&gt;" style="rounded=1;whiteSpace=wrap;html=1;strokeColor=#82b366;strokeWidth=3;fillColor=#d5e8d4;" vertex="1" parent="1">
          <mxGeometry x="264" y="378" width="90" height="30" as="geometry" />
        </mxCell>
      </root>
    </mxGraphModel>
  </diagram>
</mxfile>
